<?xml version="1.0" encoding="UTF-8" standalone="no"?>
<!-- Created with Inkscape (http://www.inkscape.org/) -->

<svg
   width="25.576452mm"
   height="35.683487mm"
   viewBox="0 0 25.576452 35.683487"
   version="1.1"
   id="svg1"
   inkscape:version="1.3.2 (091e20e, 2023-11-25, custom)"
   sodipodi:docname="kresba.svg"
   xmlns:inkscape="http://www.inkscape.org/namespaces/inkscape"
   xmlns:sodipodi="http://sodipodi.sourceforge.net/DTD/sodipodi-0.dtd"
   xmlns="http://www.w3.org/2000/svg"
   xmlns:svg="http://www.w3.org/2000/svg">
  <sodipodi:namedview
     id="namedview1"
     pagecolor="#505050"
     bordercolor="#ffffff"
     borderopacity="1"
     inkscape:showpageshadow="0"
     inkscape:pageopacity="0"
     inkscape:pagecheckerboard="1"
     inkscape:deskcolor="#505050"
     inkscape:document-units="mm"
     showguides="true"
     inkscape:zoom="1.9580948"
     inkscape:cx="178.23447"
     inkscape:cy="388.38773"
     inkscape:window-width="2560"
     inkscape:window-height="1351"
     inkscape:window-x="3191"
     inkscape:window-y="-9"
     inkscape:window-maximized="1"
     inkscape:current-layer="layer1">
    <sodipodi:guide
       position="-59.803896,257.0257"
       orientation="1,0"
       id="guide16"
       inkscape:locked="false" />
    <sodipodi:guide
       position="-56.223141,256.55277"
       orientation="1,0"
       id="guide17"
       inkscape:locked="false" />
  </sodipodi:namedview>
  <defs
     id="defs1">
    <inkscape:path-effect
       effect="roughen"
       id="path-effect13"
       is_visible="true"
       lpeversion="1.2"
       global_randomize="1.6;1"
       displace_x="10;1"
       displace_y="10;1"
       method="size"
       max_segment_size="1.512"
       segments="2"
       handles="along"
       shift_nodes="true"
       fixed_displacement="false"
       spray_tool_friendly="false" />
    <inkscape:path-effect
       effect="roughen"
       id="path-effect11"
       is_visible="true"
       lpeversion="1.2"
       global_randomize="1.5;1"
       displace_x="10;1"
       displace_y="10;1"
       method="size"
       max_segment_size="1.523"
       segments="6"
       handles="along"
       shift_nodes="true"
       fixed_displacement="false"
       spray_tool_friendly="false" />
  </defs>
  <g
     inkscape:label="Vrstva 1"
     inkscape:groupmode="layer"
     id="layer1"
     style="display:inline"
     transform="translate(-103.76949,-51.081603)">
    <path
       id="text1"
       style="font-size:127.119px;line-height:0.9;font-family:'EA Logo';-inkscape-font-specification:'EA Logo';display:none;fill:#ffffff;stroke:#ffffff;stroke-width:17.6786;stroke-opacity:0"
       d="m 57.95019,55.211399 -9.666714,15.665762 v 15.665745 l 9.666714,15.665244 h 53.78496 V 117.8739 H 48.283476 v 15.66576 H 117.932 l 9.6662,-15.66576 c 0.006,-15.66558 -0.009,-31.331175 0,-46.99674 L 117.932,55.211399 Z m 6.196334,15.665762 h 47.303866 l 0.0649,15.665745 H 64.146514 Z"
       sodipodi:nodetypes="cccccccccccccccccc"
       inkscape:label="9" />
    <path
       id="text14"
       style="font-size:22.5778px;line-height:0.9;font-family:'EA Logo';-inkscape-font-specification:'EA Logo';display:none;fill:#ffffff;stroke:#ffffff;stroke-width:17.5884;stroke-opacity:0"
       d="M 66.47173,55.166289 54.722925,70.848834 51.606884,86.534251 h -0.422097 l 9.562881,15.682549 -9.562881,15.68255 9.562881,15.68542 h 27.189594 27.198208 l 9.56288,-15.68542 -9.56288,-15.68255 9.56288,-15.682549 h -0.43364 L 121.16015,70.848834 109.41135,55.166289 H 87.936953 Z m 33.80205,15.682545 7.16722,15.685417 H 87.937212 68.43342 L 75.540785,70.848834 Z M 80.35009,102.2168 h 7.587122 7.595741 l 9.551387,15.68255 H 87.937212 70.787203 Z"
       sodipodi:nodetypes="cccccccccccccccccccccccccccccc"
       inkscape:label="8" />
    <path
       d="M 83.525544,133.58469 103.4245,77.757505 h 15.68366 L 99.209206,133.58469 Z m -23.72078,-62.734671 9.557234,-15.68365 h 49.746162 v 15.68365 c 0,0 -51.338856,0.132875 -59.303396,0 z"
       id="text13"
       style="font-size:22.5778px;line-height:0.9;font-family:'EA Logo';-inkscape-font-specification:'EA Logo';display:none;fill:#ffffff;stroke:#ffffff;stroke-width:17.5885;stroke-opacity:0"
       aria-label="7"
       sodipodi:nodetypes="cccccccccc"
       inkscape:label="7" />
    <path
       id="text11"
       style="font-size:22.5778px;line-height:0.9;font-family:'EA Logo';-inkscape-font-specification:'EA Logo';display:none;fill:#ffffff;stroke:#ffffff;stroke-width:17.5884;stroke-opacity:0"
       d="m 58.289467,55.16629 -9.557138,15.685431 v 15.682561 31.367988 l 9.557138,15.6825 h 59.304213 l 9.55713,-15.6825 V 102.21678 L 117.59368,86.534282 H 64.248319 V 70.851721 H 127.15081 V 55.16629 Z m 6.128282,47.05049 h 47.050521 v 15.68549 H 64.417749 Z"
       sodipodi:nodetypes="ccccccccccccccccccc"
       inkscape:label="6" />
    <path
       id="text2"
       style="font-size:120.338px;line-height:0.9;font-family:'EA Logo';-inkscape-font-specification:'EA Logo';display:none;fill:#ffffff;stroke:#ffffff;stroke-width:17.6787;stroke-opacity:0"
       d="m 48.285501,55.21144 c 0.0049,15.66557 2.3e-5,31.331131 0,46.99669 h 63.452029 v 15.66575 H 48.285501 v 15.66574 h 69.648569 l 9.66633,-15.66574 V 102.20813 L 117.93407,86.54239 H 63.576486 V 70.87719 H 127.6004 V 55.21144 Z"
       sodipodi:nodetypes="ccccccccccccccc"
       inkscape:label="5" />
    <path
       d="M 111.46707,133.5847 V 102.21737 H 58.289638 L 48.732406,86.533701 V 55.166363 H 64.416072 V 86.533701 H 111.46707 V 55.166363 h 15.68366 V 133.5847 Z"
       id="text4"
       style="font-size:22.5778px;line-height:0.9;font-family:'EA Logo';-inkscape-font-specification:'EA Logo';display:none;fill:#ffffff;stroke:#ffffff;stroke-width:17.5885;stroke-opacity:0"
       aria-label="4"
       inkscape:label="4" />
    <path
       id="text8"
       style="font-size:22.5778px;line-height:0.9;font-family:'EA Logo';-inkscape-font-specification:'EA Logo';display:none;fill:#ffffff;stroke:#ffffff;stroke-width:17.5884;stroke-opacity:0"
       d="M 52.194661,55.166298 V 70.84887 h 50.796929 l 5.5534,15.685435 H 52.194661 v 15.682585 h 42.053468 l 9.557131,15.68251 H 52.194661 v 15.68537 h 60.432579 l 9.55714,-15.68538 -9.55714,-15.68251 9.55714,-15.682575 V 70.84887 l -9.55714,-15.682572 z"
       sodipodi:nodetypes="ccccccccccccccccc"
       inkscape:label="3" />
    <path
       id="text5"
       style="font-size:125.469px;line-height:0.9;font-family:'EA Logo';-inkscape-font-specification:'EA Logo';display:none;fill:#ffffff;stroke:#ffffff;stroke-width:17.5884;stroke-opacity:0"
       d="M 45.301161,55.166318 V 70.85011 H 109.74888 V 86.533896 H 54.858197 l -9.557036,15.683284 v 31.36757 h 68.860879 l 9.55703,-15.68378 H 60.984436 v -15.68379 h 53.177604 l 9.55703,-15.683284 V 70.850111 l -9.55703,-15.683792 z"
       sodipodi:nodetypes="cccccccccccccccc"
       inkscape:label="2" />
    <path
       d="M 91.373156,133.5847 V 70.850033 H 75.68949 L 85.246722,55.166367 H 107.05682 V 133.5847 Z"
       id="text3"
       style="font-size:22.5778px;line-height:0.9;font-family:'EA Logo';-inkscape-font-specification:'EA Logo';display:none;fill:#ffffff;stroke:#ffffff;stroke-width:17.5885;stroke-opacity:0"
       aria-label="1"
       inkscape:label="1" />
    <path
       style="display:inline;fill:#ffffff;fill-opacity:0;stroke:#1faeff;stroke-width:3.165;stroke-linecap:round;stroke-opacity:0.973176"
       d="m 126.06961,53.77889 c -2.4521,-0.408683 -1.22102,-0.213955 -6.08053,-0.810736 -1.84393,-0.226449 -3.68068,-0.373544 -5.54003,-0.270245 -0.318,0.01767 -0.628,0.115255 -0.94587,0.135122 -1.02362,0.06398 -2.09071,-0.12714 -3.10782,0 -0.73939,0.09242 -1.42391,0.135123 -2.16197,0.135123 -0.045,0 0.10328,-0.03185 0.13513,0 0.25614,0.256148 0.38346,0.631806 0.54049,0.945859 0.62971,1.259419 0.81074,1.710777 0.81074,3.107825 0,2.76905 -0.0209,5.631696 -0.40537,8.377616 -0.1531,1.093528 -0.47213,2.157669 -0.67562,3.24295 -0.20196,1.077121 -0.36032,2.161963 -0.54049,3.242947 -0.36033,1.44131 -0.77492,2.870129 -1.08098,4.32393 -0.23492,1.115885 -0.37922,2.249188 -0.54049,3.378073 -0.0613,0.429368 0.10533,0.929896 0,1.351227 -0.21037,0.841491 -0.62548,1.631264 -0.94586,2.432211 -0.069,0.172426 -0.26644,0.409175 -0.13513,0.540491 0.0274,0.02742 0.53413,0.0043 0.5405,0 0.0838,-0.05587 0.0639,-0.19903 0.13512,-0.270246 0.18458,-0.184583 1.48949,-0.375689 1.7566,-0.405368 0.58195,-0.06466 1.17106,0 1.75659,0 0.67562,0 1.35377,-0.05853 2.02685,0 0.67903,0.05905 1.34832,0.205624 2.02684,0.270246 0.26903,0.02561 0.54286,-0.03572 0.81074,0 0.76523,0.102031 1.6994,0.296222 2.43221,0.540491 0.54116,0.180387 1.60644,0.190886 2.16196,0.270245 1.21702,0.17386 2.45042,0.264054 3.64832,0.540493 0.27757,0.06405 0.5314,0.214379 0.81074,0.270246 0.39398,0.0788 0.93672,0 1.35123,0 0.27524,0 2.85962,-0.415478 2.90993,-0.465788"
       id="path1"
       sodipodi:nodetypes="csssssssssscscscscsssssssssssc" />
    <path
       style="display:inline;fill:#ffffff;fill-opacity:0;stroke:#1faeff;stroke-width:3.165;stroke-linecap:round;stroke-opacity:0.973176"
       d="m 109.31438,68.912649 c 0.58553,0 1.17196,-0.03248 1.75659,0 0.22932,0.01273 0.45041,0.09008 0.67562,0.135123 0.7657,0.04504 1.53052,0.108688 2.29709,0.135123 1.61509,0.05569 3.248,0 4.86442,0 0.63057,0 1.26115,0 1.89172,0 0.0901,0 0.20655,-0.0637 0.27024,0 0.0319,0.03185 -0.0418,0.118395 0,0.135122 0.85827,0.343308 3.37498,0.135123 4.45906,0.135123"
       id="path2" />
    <path
       style="display:none;fill:#212121;fill-opacity:0;fill-rule:nonzero;stroke:#ffffff;stroke-width:3.17;stroke-linecap:round;stroke-linejoin:round;stroke-dasharray:none;stroke-opacity:0.984979;paint-order:stroke markers fill"
       d="m 124.65082,70.736807 -1.31261,-3.993204 13.69485,2.741319 -2.08282,-3.204346 -1.87866,-2.209168 2.05838,0.952996 3.78908,2.05833 -2.75574,-4.448547 9.04464,5.207242 0.0316,0.02335 2.36573,1.307373 0.32272,0.11673 0.64958,0.742649 -2.98032,-7.625246 0.32067,3.426805 6.69204,5.87115 -3.45944,0.685278 c -0.0188,-0.01799 0.30381,0.134573 0.27203,-0.02093 0.30334,0.03607 0.63526,-0.04401 0.54521,-0.457764 0.64355,0.04686 12.55326,-0.314037 12.3587,-0.940282 12.12886,-1.450784 -7.13702,-15.470045 -12.67869,-17.942812 -5.27253,-11.827511 -5.77571,3.524876 -8.5319,5.789289 1.02196,0.516357 0.43053,0.411987 0.43053,0.411987 0.43053,0.411988 7.5943,3.108216 7.5943,3.108216 7.3362,3.320264 -1.56649,-1.071127 -3.03035,-1.448807 -0.49398,-1.16427 -0.67932,-0.782052 -1.02298,-0.860029 -0.51189,-0.729517 -1.9333,-2.327066 -2.44015,-2.400617 -1.35265,-2.185832 -2.37701,-2.249787 -2.74716,-2.206386 -3.29789,-1.987465 -2.52051,-2.393996 -2.72095,-1.512752 -0.0398,0.17496 -0.28874,4.555891 -0.34585,4.556647 -0.63761,0.0084 -1.51486,-0.259592 -2.09739,-0.193102 -0.78121,-0.247871 -2.54308,-7.257405 -3.01376,-7.154548 -4.20409,-6.814868 3.75961,5.36398 2.51053,8.252316 7.89543,3.358593 1.11668,3.160157 0.55643,3.918734 1.47547,2.224943 2.60427,3.787521 2.0074,4.328048 2.10236,3.961471 3.96784,2.962949 1.57198,3.602344 5.78291,1.392969 -9.39862,-4.026065 -13.01204,-3.63827 -2.8743,-4.769669 2.76718,1.374664 2.76718,1.374664 2.45445,1.408227 -3.08367,-10.534445 -3.3795,-10.428629 -3.63502,-10.22339 -0.79553,4.503764 -0.97904,7.943787 0.83829,0.978801 5.72807,0.541754 5.7163,0.721092 5.63703,1.878557 -3.66048,0.717301 -5.19185,1.887765 -2.33889,-2.299404 3.42761,3.167864 3.25015,3.445524 3.16308,3.880958 -4.48599,-0.36894 -5.57922,-0.297337 -1.63353,-1.65735 -0.52995,-0.177575 -0.28631,0.228889 0.26983,0.450144 -2.15668,-7.597726 -2.15913,-7.574853 -0.0369,0.343949 -2.20236,-3.172795 -2.1955,-2.787624 -2.12406,-2.393568 -2.23644,-4.106843 -1.44662,-2.030164 -1.82901,-5.241333 1.27184,-0.480703 3.19437,2.556961 0.004,-4.005326 1.67451,-7.45664 3.02963,-5.52927 1.17214,-8.469978 3.59424,0.878038 5.81877,4.499175 0.82507,-3.4099 2.3966,3.800638 3.50291,5.725565 0.50823,0.629808 12.26651,3.144555 12.47679,3.51047 11.84807,2.416077 4.82735,0.899506 4.82735,0.899506 8.69581,7.630945 -3.56327,-1.494845 -3.87914,-0.521455 -1.33738,-13.101872 -0.14094,1.539058 0.19824,3.871884 -0.25123,0.0062 2.81704,3.084017 2.90552,3.602575 3.16597,5.021419 -0.86115,4.41144 -0.94424,4.964371 -0.41358,-0.456812 6.1142,1.821552 6.11408,1.823037 6.10335,1.962067 -5.46605,-1.096273 -5.46198,-1.164404 0.10304,0.05079 6.40287,1.438325 6.40288,1.437253 6.50391,1.490472 -6.76848,-1.821223 -6.76848,-1.821227 -0.26458,-0.330735 -2.17804,-3.570557 -2.17804,-3.570557 -2.17804,-3.570557 3.70916,1.901887 3.9317,2.257326 4.24463,2.757116 -0.43095,2.581007 -0.43095,2.581007 1.05812,0.937042 1.1776,0.855561 1.1776,0.855561 2.23572,1.792602 1.4241,0.900192 1.4241,0.900192 0,0 4.09927,-0.08354 4.09927,-0.08354"
       id="path6"
       sodipodi:nodetypes="ccssc"
       inkscape:linked-fill="path10"
       inkscape:path-effect="#path-effect11"
       inkscape:original-d="m 124.65082,70.736807 24.25455,1.41879 c 0,0 -1.01342,-12.836671 -11.2152,-12.701548 -10.20177,0.135123 -14.05277,6.958827 -14.86351,14.525707 -0.81074,7.566877 5.67516,16.822793 24.72748,10.269334" />
    <path
       style="display:none;fill:#212121;fill-opacity:0;stroke:#ffffff;stroke-width:3.17;stroke-linecap:round;stroke-linejoin:round;stroke-dasharray:none;stroke-opacity:0.984979;paint-order:stroke markers fill"
       d="m 134.86357,66.595754 c -0.54302,-1.009126 -1.39846,-2.19991 -2.19756,-3.05748 -0.36088,-0.387279 -0.77225,-0.724474 -1.14656,-1.098783 -0.088,-0.08794 -0.14591,-0.20401 -0.23887,-0.286639 -1.14191,-1.015034 -2.61371,-1.581819 -4.10849,-1.815378 -0.18945,-0.0296 -0.38386,-0.01786 -0.57327,-0.04777 -0.8042,-0.126979 0.27603,-0.174159 -1.05101,-0.04777 -0.3332,0.03173 -1.13238,0.261559 -1.2421,0.286639 -2.25232,0.514813 1.05183,-0.320998 -1.57652,0.429959 -0.0459,0.01312 -0.0955,0 -0.14332,0 -0.19109,0.0637 -0.39525,0.09685 -0.57328,0.191092 -0.0995,0.05268 -0.15924,0.159242 -0.23886,0.238863 -0.11147,0.0637 -0.21958,0.133678 -0.33441,0.191093 -0.45867,0.229336 -0.91682,0.460555 -1.38542,0.668824 -0.61359,0.272706 -0.0578,-0.100594 -0.66883,0.238866 -0.46353,0.257516 -1.11037,1.661324 -1.38542,2.054246 -0.13576,0.19394 -0.33426,0.337199 -0.47773,0.525505 -0.11255,0.147717 -0.18694,0.321056 -0.28664,0.477732 -0.1233,0.193757 -0.28594,0.364749 -0.38218,0.573275 -0.0972,0.210524 -0.12291,0.447215 -0.1911,0.668824 -0.45185,1.468538 -0.47364,1.95153 -0.57328,3.678532 -0.0624,1.08119 -0.0182,2.251294 0.28664,3.296348 0.0439,0.150564 0.13425,0.283784 0.1911,0.429959 0.0547,0.140798 0.0781,0.293669 0.14332,0.429958 0.2461,0.514583 0.59431,0.97632 0.85991,1.480966 0.31377,0.596164 0.90481,1.681482 1.38542,2.102019 0.16301,0.142629 0.35551,0.247973 0.52551,0.382185 0.45032,0.355518 0.86981,0.863214 1.43319,1.051007 0.76215,0.25405 1.50208,0.230645 2.29311,0.191093 0.23018,-0.01151 0.34784,0.02738 0.57328,-0.04777 0.10134,-0.03378 0.18877,-0.100502 0.28664,-0.14332 1.02949,-0.450397 0.005,0.05242 0.81214,-0.382182 0.36734,-0.197798 0.88121,-0.445956 1.14656,-0.764371 0.004,-0.0049 0.38833,-0.571699 0.42996,-0.668824 0.0334,-0.07787 0.0681,-0.614498 0.0478,-0.668825 -0.0237,-0.06326 -0.10111,-0.09056 -0.14332,-0.143319 -0.11203,-0.140034 -0.16545,-0.344422 -0.28664,-0.477732 -0.0988,-0.108635 -0.22233,-0.191804 -0.33441,-0.286639 -0.18072,-0.152916 -0.33287,-0.340132 -0.52551,-0.477732 -0.23787,-0.169915 -0.50289,-0.299222 -0.76436,-0.429958 -0.15341,-0.0767 -0.32433,-0.11439 -0.47774,-0.191093 -0.14664,-0.07332 -0.27975,-0.173148 -0.42995,-0.238866 -0.60859,-0.266255 -1.49463,-0.286636 -2.1498,-0.286636 -0.83529,0 -1.66423,0.06624 -2.4842,0.238863 -0.1285,0.02705 -0.25479,0.0637 -0.38218,0.09555 -0.14332,0.04777 -0.28249,0.110548 -0.42996,0.143319 -0.14077,0.03128 -0.28823,0.02119 -0.42996,0.04777 -0.31679,0.0594 -0.61432,0.217064 -0.90769,0.334412 -0.12633,0.05053 -0.27434,0.06037 -0.38219,0.14332 -0.10857,0.08352 -0.14752,0.232325 -0.23886,0.334412 -0.1802,0.201398 -0.40027,0.36567 -0.57328,0.573278 -0.3593,0.431162 -0.2941,0.465037 -0.5255,0.812144 -0.20958,0.314373 -0.42445,0.60198 -0.57328,0.955463 -0.0782,0.185645 -0.11981,0.384884 -0.19109,0.573278 -0.46107,1.218544 -0.96421,2.414228 -1.09879,3.726305 -0.17898,1.745085 0.0192,3.03345 0.62106,4.72954 0.15599,0.439632 0.47771,1.276194 0.66882,1.672058 0.0807,0.167241 0.19645,0.315394 0.28664,0.477732 0.0692,0.124508 0.11208,0.263676 0.19109,0.382185 0.0814,0.122159 0.19982,0.21602 0.28664,0.334413 0.0888,0.121147 0.14873,0.262001 0.23887,0.382185 0.66808,0.890781 1.48182,1.681538 2.24533,2.484202 0.59395,0.624409 1.10553,1.350693 1.91093,1.719834 0.4728,0.216702 1.47506,0.517274 1.91092,0.621051 0.28269,0.06731 0.57638,0.07967 0.85992,0.14332 0.49745,0.111672 0.98066,0.284085 1.48097,0.382185 0.31409,0.06159 0.63843,0.05151 0.95546,0.09555 1.54019,0.213916 -0.0778,0.123479 1.81538,0.191093 0.49189,0.01757 1.4396,-0.07854 1.67206,-0.09555 0.19124,-0.014 0.38525,-0.01016 0.57328,-0.04777 0.13341,-0.02668 0.24923,-0.114416 0.38218,-0.143319 0.23548,-0.05119 0.4789,-0.05593 0.7166,-0.09555 0.19383,-0.03231 1.11689,-0.221711 1.33765,-0.286639 0.72663,-0.213718 1.4358,-0.469451 2.14979,-0.716598 0.31422,-0.108767 0.64511,-0.167275 0.95546,-0.286639 0.33966,-0.130635 0.9046,-0.476186 1.19433,-0.621051 0.2611,-0.130548 0.53085,-0.250328 0.76437,-0.429959 0.16981,-0.130624 0.30862,-0.298426 0.47773,-0.429958 0.0907,-0.0705 0.20544,-0.109892 0.28664,-0.19109 0.0466,-0.04656 0.12308,-0.304049 0.14332,-0.334412 0.069,-0.103487 0.16117,-0.189521 0.23887,-0.286639 0.0777,-0.09712 0.16424,-0.18714 0.23886,-0.286639 0.0214,-0.02849 0.0226,-0.07037 0.0478,-0.09555 0.0113,-0.01127 0.0335,0.0071 0.0478,0 0.0684,-0.03419 0.14332,-0.25329 0.14332,-0.334412"
       id="path11" />
    <path
       style="display:none;fill:#212121;fill-opacity:0;stroke:#ffffff;stroke-width:3.17;stroke-linecap:round;stroke-linejoin:round;stroke-dasharray:none;stroke-opacity:0.984979;paint-order:stroke markers fill"
       d="m 69.844329,88.475851 c 2.311691,-1.801477 4.220697,-4.033126 5.923867,-6.401599 1.232551,-1.714016 2.440993,-3.44958 3.535215,-5.255046 0.819565,-1.352283 1.521481,-2.774606 2.197563,-4.204036 0.915019,-1.934612 1.601687,-3.978026 1.81538,-6.114963 0.02217,-0.221834 0,-0.445881 0,-0.668824 0,-0.0637 0.0553,-0.159488 0,-0.19109 -0.242403,-0.138517 -1.053092,-0.300537 -1.337649,-0.191093 -0.232166,0.08929 -0.355832,0.356929 -0.573278,0.477729 -2.62192,1.456624 0.549884,-0.899765 -2.675294,1.624288 -0.796753,0.623544 -1.612191,1.287886 -2.10202,2.197566 -0.224469,0.416872 -0.323387,0.890045 -0.477731,1.337646 -0.680188,1.972548 -0.399148,0.941697 -0.668825,3.153029 -0.31977,2.622126 -0.713618,4.62113 0,7.261516 0.681361,2.521032 0.98788,3.092214 3.535215,5.255045 0.704879,0.598483 3.212311,1.158412 4.108489,1.337649 4.303104,0.860621 7.302678,1.008488 11.561099,-0.09555 2.324216,-0.602576 0.142464,0.06803 1.910926,-0.668825 0.121214,-0.05051 0.26026,-0.04678 0.382186,-0.09555 0.302537,-0.121015 0.191092,-0.606967 0.191092,-0.859917"
       id="path12" />
    <path
       style="display:none;fill:#212121;fill-opacity:0;stroke:#ffffff;stroke-width:3.17;stroke-linecap:round;stroke-linejoin:round;stroke-dasharray:none;stroke-opacity:0.984979;paint-order:stroke markers fill"
       d="m 129.27411,34.969936 c 0,0 -3.06427,-4.433036 -3.15733,-4.573144 -3.01709,-4.354004 9.27124,1.794433 9.27124,1.794433 8.88895,1.218849 -5.40967,-4.924953 -8.8541,-5.660447 -2.22168,-3.417969 -2.0039,-2.356445 -2.0039,-2.356445 -4.28164,-2.842812 -2.93944,1.738505 -4.01626,3.282234 -0.18384,-0.158925 2.44589,1.448554 2.42579,1.477657 2.43003,1.471865 -3.09191,-4.604776 -3.21859,-4.564031 -3.65355,-4.515433 4.31245,4.969594 4.03721,5.995271 -0.0592,0.220655 -4.83141,-1.491116 -4.96046,-1.485586 -0.66882,0.02866 1.22463,1.494606 0.63221,1.603558 1.29976,1.619578 -2.07575,0.661323 -3.19488,1.047648 -0.20302,0.313423 -0.6439,0.441838 -1.1609,0.660472 -0.086,0.271027 -4.41736,-8.932924 -4.91679,-8.683807 -4.79322,-8.682485 -4.28014,-0.730037 -4.12049,2.885768 -2.73133,-4.144615 5.41899,4.970661 6.27999,7.585956 4.2832,0.220459 0.26148,0.249511 0.26148,0.249511 0.64321,1.40904 -0.75529,2.254114 -1.90175,2.78216 -0.0685,0.463038 -0.1995,0.764626 -0.51665,0.801013 -0.1555,0.01784 12.60079,0.241258 12.59894,0.276418 -0.0159,0.302564 -1.79228,-10.222247 -1.99017,-9.886513 -2.59114,-9.262525 -2.23506,6.031966 -3.88231,10.064358 0.91269,0.985041 0.10594,1.305937 -0.0645,1.733985 0.29308,0.856632 7.77005,4.142591 7.61162,4.543951 7.30638,5.327488 -3.41323,1.921247 -5.27694,2.543713 -0.60044,-1.014666 -0.82099,-0.358842 -1.14386,-0.185633 -0.29391,-0.515599 -1.49909,-1.943391 -1.67425,-1.746506 -1.21106,-2.032522 -1.92279,-1.625036 -1.828,-1.073804 -1.58308,-1.796834 -0.0605,-4.019024 0.6108,-2.98759 -0.12172,-4.737837 0.62815,3.144334 1.39982,5.310891 -0.73044,-0.539169 0.26893,0.867945 0.63402,1.449011 0.41816,0.665525 -0.52635,-6.361577 -0.41385,-6.347638 0.71979,0.08918 10.14207,2.918833 10.71514,2.973595 14.32485,3.289852 2.23559,0.0547 -5.07855,0.705603 1.73619,1.75918 3.17893,2.837845 2.82709,2.847838 2.77935,2.822653 5.74935,0.618946 3.98271,0.235866 6.86315,0.5696 -7.50225,-5.934727 -10.62679,-6.374881 -3.06592,-5.087646 2.95166,1.466309 2.95166,1.466309 2.95166,1.466308 -2.63013,-11.351074 -2.63013,-11.351074 -5.09618,-11.698467 -3.44913,4.036545 -4.87149,7.708188 0.90066,0.859612 6.12408,0.210429 6.1202,0.22042 5.86243,0.883793 -3.00207,-1.314074 -3.66574,-0.69949 -2.63275,-2.279745 3.32375,3.717572 2.9022,4.17054 3.53359,3.579957 -3.11742,-0.578335 -4.14056,-0.1737 -1.96274,-1.620534 -1.37092,-0.274983 -1.73669,-0.08629 -1.37529,-0.203457 -4.94742,-8.755481 -5.43094,-8.226692 -0.84147,0.920242 -0.0237,7.368484 -0.18841,7.466159 -0.6632,0.393426 -4.11515,-7.18575 -4.62671,-6.741212 -5.542847,-5.675619 -4.158537,0.107538 -3.251595,4.186846 -0.640585,-3.923666 0.725615,-7.032646 1.842445,-4.382771 0.55998,-8.891181 2.49811,1.779164 4.1043,6.267408 0.48121,-3.475704 1.73629,4.495568 2.45764,6.824837 0.4464,0.694489 12.89108,3.39877 13.01613,3.809721 14.56842,8.921258 -1.49925,11.468705 -2.24359,12.214469 5.06843,1.040363 -6.50036,-14.900486 -6.48129,-14.921751 -1.39151,-14.083111 -0.065,2.299445 0.24238,5.407302 -0.2795,0.131779 2.98149,3.539791 3.06088,4.206327 3.24302,5.581847 -2.3499,3.979795 -2.35017,3.980229 -0.44092,-0.488769 6.52222,1.939942 6.52222,1.939942 6.52222,1.939941 -5.97144,-1.39624 -5.97144,-1.39624 0.10987,0.05493 6.82764,1.534912 6.82764,1.534912 6.9375,1.589843 -7.21973,-1.942627 -7.21973,-1.942627 -0.28222,-0.352783 -2.32324,-3.808594 -2.32324,-3.808594 0,0 6.40454,5.938721 6.40454,5.938721 0.50162,-0.008 2.09822,0.981197 2.5377,0.965314 1.18154,0.997601 2.48998,1.908088 2.54178,1.905774 2.38476,1.91211 3.90381,2.872315 3.90381,2.872315 6.89451,2.738754 9.91032,-0.109845 9.80185,-3.553271 8.22945,1.293982 -7.43044,-12.392679 -8.8378,-14.747401 -3.13238,-8.320193 2.60483,5.799034 3.31323,6.523489 0.94864,0.820746 -2.56939,-4.320965 -2.78199,-4.544233 -2.231,-4.040092 10.82999,5.126243 10.86171,5.15657 8.80144,1.324626 -0.23396,2.109611 -0.23405,2.109531 8.5669,3.433838 -8.56689,-8.35669 -8.56689,-8.35669 0,-4.922851 -0.9082,3.78003 -0.9082,3.78003 0,0 5.95874,1.611084 5.95874,1.611084"
       id="path13"
       inkscape:path-effect="#path-effect13"
       inkscape:original-d="m 129.27411,34.969936 c 0,0 -3.82185,-6.401599 -10.51009,-6.11496 -6.68824,0.286639 -9.45908,4.872861 -9.65017,8.503619 -0.19109,3.630758 -1.52874,10.701181 9.26799,12.03883 10.79672,1.337648 3.05748,-9.554628 -8.21698,-2.866388 -11.274464,6.688238 -2.10202,17.293876 3.91739,17.198329 6.01942,-0.09555 10.98782,1.242103 16.33842,-4.968406" />
  </g>
</svg>
